<svg width="38" height="38" viewBox="0 0 38 38" fill="none" xmlns="http://www.w3.org/2000/svg">
<g clip-path="url(#clip0)">
<path d="M34.6998 8.31903C32.9873 6.1491 30.4186 3.5625 27.9062 3.5625C27.144 3.5625 26.3757 4.08455 25.3387 5.06105C23.8703 4.40637 20.6398 3.5625 19 3.5625C17.3588 3.5625 14.1283 4.40696 12.6613 5.06105C11.6243 4.08455 10.856 3.5625 10.0938 3.5625C7.58137 3.5625 5.01266 6.1491 3.30021 8.31903C2.02424 9.93589 0 12.9757 0 14.25C0 16.6433 0.0774102 17.7178 2.01875 20.3062C3.5006 22.282 3.65765 25.1602 4.65166 26.7231C5.30204 27.7457 6.28277 28.1532 7.41304 27.8708C8.53939 27.5892 9.27074 26.6396 9.59478 25.044C10.8483 26.7706 10.6373 27.7854 10.7201 28.3726C10.8034 30.6097 14.631 34.4375 19 34.4375C23.3618 34.4375 27.1964 30.6138 27.2799 28.3727C27.3622 27.7884 27.1442 26.772 28.4042 25.0393C28.7354 26.6754 29.5932 27.9583 31.2681 27.9583C34.4074 27.9583 33.8837 23.103 35.9812 20.3063C37.9225 17.7179 37.9999 16.6434 37.9999 14.2501C38 12.9757 35.9758 9.93589 34.6998 8.31903ZM19 25.5312C18.3818 25.5312 17.6495 24.5979 17.3473 24.0086C18.2253 23.6638 19.7741 23.6636 20.6526 24.0086C20.3505 24.5979 19.6182 25.5312 19 25.5312ZM18.9999 30.2784C19.7715 30.8612 20.7795 31.2129 21.8153 31.3428C19.9429 32.3009 18.0592 32.3019 16.1846 31.3428C17.2203 31.2129 18.2284 30.8612 18.9999 30.2784ZM34.0812 18.8812C32.2115 21.3742 31.9246 24.9847 31.2456 25.5818C30.8217 25.5432 30.665 24.2484 30.6273 23.8241C30.4327 21.6349 30.875 18.5071 30.875 16.625C30.875 13.4129 28.4768 8.57939 28.3746 8.37522C28.0813 7.78859 27.3679 7.55094 26.7815 7.84411C26.1948 8.13742 25.9571 8.85073 26.2504 9.43728C26.8761 10.6888 28.5 14.4196 28.5 16.625C28.5 17.8639 28.2735 19.846 28.2164 21.7487C27.5743 22.3021 24.9375 24.7661 24.9375 27.9062C24.9375 29.3782 20.8074 29.3826 20.0491 27.9458C20.0172 27.8852 19.9732 27.8159 19.926 27.757C21.7102 27.1877 23.1562 24.942 23.1562 23.75C23.1562 20.5625 14.8438 20.5625 14.8438 23.75C14.8438 24.9415 16.2849 27.1861 18.074 27.757C18.0274 27.815 17.9834 27.8841 17.9509 27.9457C17.19 29.3869 13.0625 29.3756 13.0625 27.9062C13.0625 24.7661 10.4257 22.3021 9.78359 21.7487C9.72859 19.915 9.5 17.8334 9.5 16.625C9.5 14.425 11.1241 10.6904 11.7496 9.43728C12.043 8.85073 11.8052 8.13742 11.2185 7.84411C10.632 7.55079 9.91859 7.78859 9.62535 8.37522C9.52323 8.57939 7.125 13.4129 7.125 16.625C7.125 18.5081 7.56719 21.6365 7.37267 23.8241C7.33496 24.2484 7.17829 25.5431 6.75435 25.5818C6.0682 24.9785 5.79507 21.3831 3.91868 18.8812C2.3914 16.8449 2.37515 16.2898 2.37493 14.3146C2.51268 13.7676 3.63798 11.6799 5.33091 9.58186C7.1158 7.36977 8.84353 6.02189 9.98702 5.94136C10.3379 6.11763 11.0646 6.8066 11.629 7.37096C12.0787 7.82073 12.8041 7.83631 13.2727 7.40525C13.8627 7.00247 17.4123 5.9375 19 5.9375C20.5877 5.9375 24.1373 7.00247 24.7273 7.40525C25.1954 7.83579 25.9207 7.82117 26.371 7.37096C27.3507 6.3912 27.8039 6.04705 28.0131 5.94136C29.1566 6.02204 30.8843 7.37 32.669 9.58186C34.3619 11.6799 35.4873 13.7676 35.625 14.3146C35.6249 16.2898 35.6085 16.8449 34.0812 18.8812Z" fill="black"/>
<path d="M13.3594 17.2188C14.1792 17.2188 14.8438 16.5542 14.8438 15.7344C14.8438 14.9146 14.1792 14.25 13.3594 14.25C12.5396 14.25 11.875 14.9146 11.875 15.7344C11.875 16.5542 12.5396 17.2188 13.3594 17.2188Z" fill="black"/>
<path d="M24.6406 17.2188C25.4604 17.2188 26.125 16.5542 26.125 15.7344C26.125 14.9146 25.4604 14.25 24.6406 14.25C23.8208 14.25 23.1562 14.9146 23.1562 15.7344C23.1562 16.5542 23.8208 17.2188 24.6406 17.2188Z" fill="black"/>
</g>
<defs>
<clipPath id="clip0">
<rect width="38" height="38" fill="white"/>
</clipPath>
</defs>
</svg>
