<svg width="30" height="30" viewBox="0 0 30 30" fill="none" xmlns="http://www.w3.org/2000/svg">
<g clip-path="url(#clip0)">
<path d="M29.9838 1.08887C29.9701 0.98114 29.9463 0.87738 29.9069 0.780029C29.9057 0.777588 29.9057 0.774231 29.9051 0.771179C29.9051 0.770569 29.9045 0.769959 29.9039 0.769348C29.8605 0.666809 29.8013 0.57373 29.7345 0.487366C29.718 0.466919 29.7018 0.446777 29.6844 0.427551C29.613 0.346985 29.5355 0.272522 29.4455 0.211792C29.4431 0.209961 29.44 0.209351 29.4376 0.20752C29.3506 0.150146 29.2545 0.106812 29.1537 0.0726319C29.1287 0.0637817 29.1043 0.0561523 29.0787 0.0494384C28.9731 0.020752 28.8644 0 28.75 0H20C19.31 0 18.75 0.559998 18.75 1.25C18.75 1.94 19.31 2.5 20 2.5H25.7318L18.2712 9.96063C16.2817 8.36945 13.8324 7.5 11.25 7.5C5.047 7.5 0 12.547 0 18.75C0 24.953 5.047 30 11.25 30C17.453 30 22.5 24.953 22.5 18.75C22.5 16.1688 21.6312 13.7201 20.0388 11.7288L27.5 4.26758V10C27.5 10.69 28.06 11.25 28.75 11.25C29.44 11.25 30 10.69 30 10V1.25C30 1.22375 29.9939 1.19873 29.9924 1.1731C29.9905 1.14441 29.9875 1.11694 29.9838 1.08887ZM11.25 27.5C6.42487 27.5 2.5 23.5751 2.5 18.75C2.5 13.9249 6.42487 10 11.25 10C13.5861 10 15.7855 10.9094 17.4393 12.5574C19.0906 14.2145 20 16.4139 20 18.75C20 23.5751 16.0751 27.5 11.25 27.5Z" fill="black"/>
</g>
<defs>
<clipPath id="clip0">
<rect width="30" height="30" fill="white"/>
</clipPath>
</defs>
</svg>
